<?xml version="1.0" standalone="no"?>
<!DOCTYPE svg PUBLIC "-//W3C//DTD SVG 20010904//EN"
 "http://www.w3.org/TR/2001/REC-SVG-20010904/DTD/svg10.dtd">
<svg version="1.0" xmlns="http://www.w3.org/2000/svg"
 width="700.000000pt" height="700.000000pt" viewBox="0 0 700.000000 700.000000"
 preserveAspectRatio="xMidYMid meet">
<metadata>
Created by potrace 1.14, written by Peter Selinger 2001-2017
</metadata>
<g transform="translate(0.000000,700.000000) scale(0.100000,-0.100000)"
fill="#000000" stroke="none">
<path d="M1704 6982 c-12 -9 -26 -26 -31 -37 -6 -12 -10 -158 -9 -370 2 -378
3 -384 56 -404 14 -6 67 -9 118 -8 52 1 96 -2 99 -6 3 -5 5 -307 5 -671 l0
-662 -70 -135 c-38 -73 -115 -224 -172 -334 -56 -110 -133 -258 -170 -330 -37
-71 -116 -224 -175 -340 -59 -115 -142 -277 -185 -360 -43 -82 -126 -244 -185
-360 -59 -115 -145 -282 -190 -370 -45 -88 -129 -250 -185 -360 -56 -110 -137
-267 -180 -350 -42 -82 -130 -253 -195 -380 -65 -126 -144 -281 -176 -343 -33
-62 -59 -124 -59 -137 0 -13 11 -37 24 -52 l24 -28 1554 -3 1554 -2 13 52 c8
29 20 66 28 81 8 16 13 31 10 33 -2 2 -673 5 -1490 5 -818 1 -1487 3 -1487 6
0 6 93 192 185 368 34 66 111 215 170 330 190 371 296 577 370 720 95 183 226
439 360 700 59 116 145 282 190 370 140 272 258 501 370 720 59 116 137 266
173 335 l65 125 0 688 c0 491 3 687 11 688 37 3 1563 4 1574 1 9 -3 12 -150
12 -689 l0 -685 46 -91 c26 -51 83 -164 129 -252 78 -152 133 -258 353 -685
204 -397 224 -435 231 -442 6 -7 101 145 101 162 0 5 -17 41 -38 82 -22 40
-92 177 -157 303 -65 127 -148 289 -185 360 -37 72 -122 236 -189 366 l-121
237 0 668 0 669 103 -1 c56 0 112 4 124 9 51 22 52 28 51 411 l0 357 -23 27
-23 27 -1194 2 c-1114 2 -1194 1 -1214 -15z"/>
<path d="M5752 5163 c-16 -14 -225 -367 -406 -687 -25 -43 -34 -59 -188 -326
-53 -91 -104 -181 -115 -200 -40 -70 -453 -785 -462 -800 -8 -13 -156 -268
-240 -414 -13 -23 -47 -81 -76 -131 -29 -49 -63 -110 -77 -135 -14 -25 -108
-187 -208 -360 -180 -310 -268 -463 -317 -549 -14 -24 -60 -103 -102 -175 -43
-73 -80 -138 -84 -146 -4 -8 -21 -37 -37 -65 -28 -46 -92 -173 -111 -220 -19
-47 -35 -166 -33 -245 2 -100 7 -131 36 -213 75 -221 237 -381 466 -460 148
-51 343 -45 492 15 116 47 224 126 295 215 43 55 495 825 495 844 0 5 5 9 10
9 6 0 10 4 10 9 0 5 64 119 141 253 78 133 153 263 167 288 29 52 379 658 669
1160 110 190 206 356 214 370 8 14 21 33 29 44 8 10 14 20 12 22 -1 2 4 14 12
27 7 12 65 112 129 222 113 197 164 286 298 519 38 65 69 120 69 122 0 1 14
23 30 47 17 25 30 47 30 50 0 3 20 39 45 81 88 149 86 154 -143 285 -97 56
-184 106 -192 111 -8 6 -157 91 -330 190 -173 99 -322 184 -330 190 -109 70
-162 84 -198 53z m308 -313 c102 -58 309 -178 460 -265 151 -87 276 -159 277
-159 1 -1 -16 -33 -38 -72 -23 -38 -54 -91 -69 -119 -15 -27 -84 -147 -152
-265 -69 -118 -187 -323 -263 -455 -76 -132 -213 -368 -303 -525 -91 -157
-172 -298 -182 -315 -33 -58 -248 -430 -266 -462 -11 -18 -53 -92 -95 -165
-42 -73 -108 -187 -146 -253 -95 -163 -256 -442 -281 -485 -10 -19 -69 -120
-129 -225 -61 -104 -170 -293 -243 -420 -72 -126 -148 -251 -166 -277 -73 -99
-202 -182 -322 -206 -76 -15 -234 -6 -296 16 -310 112 -463 450 -338 743 16
37 185 335 352 619 34 58 99 171 389 673 91 158 344 596 383 665 13 22 69 120
126 218 57 99 108 186 113 194 10 16 434 751 453 785 6 11 123 215 260 452
235 407 250 431 270 421 12 -6 104 -59 206 -118z"/>
<path d="M4901 2964 c-19 -9 -60 -71 -160 -245 -73 -129 -146 -254 -161 -279
-22 -36 -265 -458 -358 -620 -66 -116 -193 -337 -201 -350 -6 -8 -22 -37 -37
-65 -14 -27 -32 -57 -40 -66 -8 -8 -14 -18 -14 -21 0 -3 -45 -82 -99 -177
-113 -194 -138 -244 -146 -304 -25 -164 33 -302 160 -382 69 -43 115 -54 204
-51 149 5 251 80 357 259 35 60 64 110 64 113 0 2 16 28 35 58 19 30 35 57 35
60 0 3 32 57 70 122 39 64 70 118 70 120 0 1 23 42 51 91 78 134 567 979 610
1055 21 37 47 82 57 100 11 18 52 89 91 158 39 69 77 134 83 145 6 11 38 65
70 120 62 107 66 120 44 151 -14 18 -30 19 -387 19 -254 0 -380 -4 -398 -11z
m-52 -709 c35 -17 67 -63 77 -108 20 -94 -57 -185 -161 -192 -26 -2 -84 21
-109 43 -28 25 -54 89 -51 125 13 126 132 190 244 132z m-421 -976 c37 -13 75
-68 78 -113 4 -66 -64 -136 -132 -136 -62 0 -124 64 -124 128 0 97 85 154 178
121z m-363 -460 c56 -57 19 -149 -60 -149 -79 0 -114 92 -57 150 35 34 83 34
117 -1z"/>
<path d="M2111 4067 c-25 -13 -33 -28 -193 -337 -55 -107 -131 -253 -168 -325
-73 -140 -213 -413 -360 -700 -87 -169 -135 -263 -350 -680 -303 -586 -290
-553 -234 -603 l25 -22 1261 2 1261 3 45 75 c24 41 57 98 72 125 15 28 115
201 222 385 107 184 214 369 238 410 24 41 59 102 78 135 19 33 42 74 52 90 9
17 58 100 107 186 l90 155 -56 110 c-52 100 -206 399 -409 794 -44 85 -91 167
-105 183 l-25 27 -763 0 c-587 0 -769 -3 -788 -13z m1120 -258 c117 -59 161
-210 94 -324 -101 -173 -357 -146 -420 45 -65 195 142 372 326 279z m-673
-686 c55 -26 87 -85 87 -158 0 -50 -5 -69 -27 -102 -99 -150 -343 -63 -326
117 13 130 144 201 266 143z m629 -736 c125 -66 150 -229 51 -327 -108 -106
-287 -60 -335 85 -21 63 5 163 54 207 57 52 165 68 230 35z m-430 -539 c27
-26 38 -74 24 -108 -20 -49 -39 -63 -88 -67 -59 -5 -101 24 -112 77 -21 100
101 168 176 98z"/>
<path d="M5530 1542 c-9 -15 -30 -52 -48 -83 l-31 -55 75 -147 75 -147 -162
-2 -161 -3 -44 -75 c-24 -41 -43 -78 -43 -82 -1 -12 553 -10 583 2 59 22 62
80 8 181 -21 41 -81 156 -132 257 -51 100 -96 182 -99 182 -3 0 -13 -12 -21
-28z"/>
</g>
</svg>
